<?xml version="1.0" encoding="UTF-8"?>
<!DOCTYPE svg PUBLIC "-//W3C//DTD SVG 1.1//EN" "http://www.w3.org/Graphics/SVG/1.1/DTD/svg11.dtd">
<!-- Creator: CorelDRAW 2018 (64 Bit Versão de avaliação) -->
<svg xmlns="http://www.w3.org/2000/svg" xml:space="preserve" width="275px" height="100px" version="1.1" style="shape-rendering:geometricPrecision; text-rendering:geometricPrecision; image-rendering:optimizeQuality; fill-rule:evenodd; clip-rule:evenodd"
viewBox="0 0 27500 9983"
 xmlns:xlink="http://www.w3.org/1999/xlink">
 <defs>
  <style type="text/css">
   <![CDATA[
    .str0 {stroke:white;stroke-width:82;stroke-miterlimit:22.9256}
    .str1 {stroke:white;stroke-width:33;stroke-miterlimit:22.9256}
    .fil0 {fill:white}
    .fil1 {fill:white;fill-rule:nonzero}
   ]]>
  </style>
 </defs>
 <g id="Camada_x0020_1">
  <metadata id="CorelCorpID_0Corel-Layer"/>
  <g id="_1301128114304">
   <g>
    <path class="fil0 str0" d="M6219 5953c-93,28 -45,147 -4,202 45,60 96,110 146,161l150 157c31,30 125,119 197,102 241,-58 -322,-674 -489,-622zm-2151 1095c73,-254 86,-531 99,-818 116,48 84,52 148,120 177,190 259,-94 372,-25 124,75 226,152 337,239 207,163 247,104 525,-157 94,-88 173,-185 289,-276 83,-65 444,-345 392,-450 -51,-101 -290,-490 -307,-557 65,-100 167,-119 119,-251 -14,-37 -59,-91 -80,-113 -39,-41 -55,-53 -83,-102 106,-23 795,49 845,-76 56,-138 -782,-959 -854,-983 -225,-76 -1069,-192 -1161,-234 -117,-52 -336,-322 -474,-447 -87,-78 -156,-140 -256,-214 -350,-257 -805,-475 -1395,-457 -394,13 -460,17 -527,392 -148,827 243,1532 753,2080 190,204 170,161 207,597 19,212 43,652 108,820 39,99 137,209 194,267l444 477c89,100 99,177 305,168zm-1033 -4234c-758,118 -554,1081 69,1038 283,-20 504,-242 477,-552 -25,-273 -235,-535 -546,-486zm-5 232c-426,108 -274,620 74,579 402,-49 286,-670 -74,-579zm1788 3083c95,57 322,249 383,276l779 -697c-34,-114 -181,-360 -247,-409 -35,13 -265,217 -320,265 -89,79 74,175 -45,262 -56,42 -110,6 -170,-10 -76,-21 -62,-11 -144,71 -54,53 -204,191 -236,242zm-1309 -924c-52,24 -87,73 -136,92l-133 -83c7,244 36,718 131,898 72,139 230,217 370,397 21,27 91,127 113,142 68,-47 70,-204 78,-302 7,-91 39,-265 23,-350 -31,-167 -343,-322 -310,-450 10,-41 62,-80 112,-77 116,7 232,198 304,270 60,61 319,389 390,385 34,-14 109,-91 144,-122l427 -383c-30,-64 -111,-150 -155,-203 -81,-99 -877,-948 -944,-1004 -77,-65 -251,-229 -146,-334 81,-81 182,25 227,71 53,55 105,131 162,194 114,124 231,241 344,366l689 727c47,-22 104,-85 147,-122l429 -384c-45,-109 -383,-447 -510,-589 -18,-19 -68,-74 -80,-102 -57,-133 79,-257 263,-32 47,57 119,161 183,191 142,66 530,29 710,28 -36,-103 -430,-537 -506,-585 -114,-74 -710,-189 -889,-189 32,53 72,91 103,157 57,119 -66,291 -394,-115l-377 -429c-48,-51 -89,-91 -140,-138 -356,-322 -812,-656 -1525,-656 -205,0 -300,11 -346,192 -34,131 -22,372 -6,513 37,330 134,575 273,818 100,174 325,463 473,612 97,98 475,447 502,596zm2352 1086c-228,68 166,420 197,451 65,66 124,139 184,208 209,239 337,147 307,23 -27,-114 -203,-260 -270,-327 -73,-73 -284,-395 -418,-355zm-404 326c-100,146 33,226 171,389 76,89 98,95 155,162 25,28 50,47 84,70 39,27 51,44 103,20 176,-83 -71,-315 -138,-378 -112,-104 -241,-280 -375,-263z"/>
    <path class="fil0 str1" d="M94 4585c0,614 63,1029 242,1567 16,46 26,73 43,115 78,193 252,440 252,570 0,191 -5,187 -52,374 -21,85 -45,175 -71,265 -27,90 -47,175 -70,266l-213 797c-46,179 -99,352 -141,531 128,0 983,-234 1121,-269 200,-51 950,-274 1144,-274 87,0 164,46 219,78 145,84 481,197 644,249 540,172 1233,212 1815,123 161,-25 289,-54 436,-91 272,-67 545,-170 770,-280 259,-127 414,-208 666,-386 92,-64 283,-209 365,-289l209 -197c94,-93 229,-238 309,-345l168 -227c37,-54 67,-104 102,-157 233,-351 448,-897 540,-1300 158,-694 150,-1285 3,-1977 -28,-136 -74,-277 -118,-406 -113,-342 -240,-573 -425,-881 -272,-452 -738,-909 -1157,-1210 -725,-522 -1562,-785 -2469,-785 -641,0 -1340,177 -1911,461 -264,131 -587,329 -814,515l-481 440c-324,384 -463,535 -709,1024 -241,481 -417,1127 -417,1699zm1016 3491c260,-18 514,-115 746,-183 239,-70 525,-177 761,-51 448,238 803,387 1409,456 588,68 1126,-14 1620,-193 224,-81 440,-191 622,-309 99,-63 180,-119 275,-191 44,-33 85,-66 127,-101 91,-78 287,-266 356,-348 230,-274 392,-481 565,-830 198,-400 367,-939 382,-1478 15,-570 -91,-1123 -304,-1556 -103,-211 -212,-412 -344,-586 -72,-93 -236,-306 -316,-378 -50,-46 -79,-71 -119,-118 -39,-45 -78,-69 -120,-109 -47,-44 -82,-72 -128,-109 -92,-74 -170,-131 -268,-198 -608,-411 -1412,-662 -2203,-586 -900,86 -1640,426 -2260,1001l-226 239c-281,292 -549,775 -686,1175 -307,896 -229,2019 274,2848l165 304c23,128 -317,1042 -328,1301z"/>
   </g>
   <g>
    <path class="fil1 str1" d="M9347 4752c0,887 675,1508 1508,1508 616,0 1147,-306 1372,-884l-582 0c-157,314 -437,463 -790,463 -586,0 -1011,-420 -1011,-1087 0,-667 425,-1084 1011,-1084 353,0 633,149 790,463l582 0c-225,-577 -756,-887 -1372,-887 -833,0 -1508,624 -1508,1508zm5675 310c0,-735 -526,-1207 -1193,-1207 -667,0 -1194,472 -1194,1207 0,735 505,1210 1172,1210 672,0 1215,-475 1215,-1210zm-1894 0c0,-531 327,-786 692,-786 361,0 705,255 705,786 0,531 -357,790 -718,790 -365,0 -679,-259 -679,-790zm4035 1172l480 0 0 -1380c0,-655 -412,-999 -960,-999 -280,0 -539,115 -696,306l0 -268 -485 0 0 2341 485 0 0 -1308c0,-429 233,-650 590,-650 353,0 586,221 586,650l0 1308zm2082 -1971c361,0 646,229 654,591l-1296 0c51,-370 315,-591 642,-591zm1096 1275l-523 0c-89,182 -254,327 -552,327 -357,0 -633,-234 -667,-621l1789 0c12,-80 17,-157 17,-238 0,-688 -472,-1151 -1139,-1151 -692,0 -1168,472 -1168,1207 0,735 497,1210 1168,1210 574,0 943,-327 1075,-734zm378 -476c0,735 476,1210 1147,1210 574,0 947,-318 1079,-777l-522 0c-90,242 -268,370 -557,370 -391,0 -650,-289 -650,-803 0,-510 259,-799 650,-799 289,0 476,145 557,370l522 0c-132,-493 -505,-778 -1079,-778 -671,0 -1147,476 -1147,1207zm2787 522c0,476 259,650 675,650l383 0 0 -403 -298 0c-204,0 -272,-73 -272,-247l0 -1295 570 0 0 -396 -570 0 0 -582 -488 0 0 582 -276 0 0 396 276 0 0 1295zm1342 -531c0,722 489,1219 1096,1219 391,0 671,-187 820,-386l0 348 489 0 0 -2341 -489 0 0 340c-144,-191 -416,-378 -811,-378 -616,0 -1105,476 -1105,1198zm1916 9c0,505 -344,790 -709,790 -361,0 -710,-293 -710,-799 0,-505 349,-777 710,-777 365,0 709,284 709,786z"/>
    <path class="fil1 str1" d="M20376 7829l176 -1 212 -722 200 722 177 0 283 -953 -168 0 -198 772 -199 -772 -176 0 -214 776 -197 -776 -166 0 270 954zm1177 -1l156 0 0 -423c0,-138 75,-209 191,-209 113,0 189,71 189,209l0 423 155 0 0 -446c0,-211 -132,-322 -301,-322 -97,0 -182,37 -234,100l0 -347 -156 0 0 1015zm837 -381c0,233 158,393 354,393 126,0 217,-60 265,-125l0 113 158 0 0 -756 -158 0 0 110c-47,-62 -134,-122 -262,-122 -199,0 -357,153 -357,387zm619 2c0,163 -111,255 -229,255 -117,0 -229,-94 -229,-257 0,-164 112,-251 229,-251 118,0 229,91 229,253zm388 169c0,154 84,210 218,210l123 0 0 -130 -96 0c-65,0 -87,-24 -87,-80l0 -418 183 0 0 -128 -183 0 0 -188 -158 0 0 188 -89 0 0 128 89 0 0 418zm1049 -1c-8,-273 -435,-188 -435,-340 0,-51 44,-85 128,-85 85,0 136,45 141,111l156 0c-8,-151 -120,-243 -292,-243 -178,0 -290,97 -290,218 0,277 438,192 438,340 0,52 -48,90 -138,90 -86,0 -145,-50 -151,-112l-162 0c7,137 135,244 316,244 178,0 289,-96 289,-223zm812 211l164 0 -341 -955 -181 0 -342 955 164 0 68 -195 399 0 69 195zm-113 -322l-311 0 156 -443 155 443zm582 -323l0 -111 -157 0 0 1115 157 0 0 -469c49,59 138,122 263,122 199,0 355,-160 355,-393 0,-234 -156,-387 -355,-387 -123,0 -215,60 -263,123zm459 264c0,163 -112,257 -230,257 -117,0 -229,-92 -229,-255 0,-162 112,-253 229,-253 118,0 230,87 230,251zm471 -264l0 -111 -157 0 0 1115 157 0 0 -469c49,59 138,122 263,122 199,0 355,-160 355,-393 0,-234 -156,-387 -355,-387 -124,0 -215,60 -263,123zm459 264c0,163 -113,257 -230,257 -117,0 -229,-92 -229,-255 0,-162 112,-253 229,-253 117,0 230,87 230,251z"/>
   </g>
  </g>
 </g>
</svg>
